<?xml version="1.0" encoding="utf-8"?>
<!-- Generator: Adobe Illustrator 16.0.0, SVG Export Plug-In . SVG Version: 6.00 Build 0)  -->
<!DOCTYPE svg PUBLIC "-//W3C//DTD SVG 1.1//EN" "http://www.w3.org/Graphics/SVG/1.1/DTD/svg11.dtd">
<svg version="1.1" id="Capa_1" xmlns="http://www.w3.org/2000/svg" xmlns:xlink="http://www.w3.org/1999/xlink" x="0px" y="0px"
	 width="106.333px" height="107.167px" viewBox="0 0 106.333 107.167" enable-background="new 0 0 106.333 107.167"
	 xml:space="preserve">
<linearGradient id="SVGID_1_" gradientUnits="userSpaceOnUse" x1="1.3433" y1="53.3179" x2="104.7466" y2="53.3179">
	<stop  offset="0" style="stop-color:#654293"/>
	<stop  offset="1" style="stop-color:#0FB2AE"/>
</linearGradient>
<path fill="url(#SVGID_1_)" d="M104.74,53.321c0-2.604-0.227-5.115-0.566-7.58l-2.481-0.035l-4.465-0.053l-4.458-0.057l-4.46-0.057
	l-4.465-0.055l-4.461-0.059l-4.457-0.057l-4.468-0.055l-4.462-0.059L61.539,45.2l-4.463-0.057l-4.467-0.057l-0.605-0.006l0.605,1.26
	l4.467,9.311l4.463,9.287l3.546,7.4c0.055-0.006,0.104-0.029,0.158-0.029c0.268,0,0.51,0.086,0.754,0.154
	c0.873,0.234,1.595,0.807,1.949,1.619l2.513-0.574l4.468-1.016l4.457-1.016l4.461-1.02l4.465-1.02l4.46-1.014l4.458-1.021
	l4.465-1.02l1.514-0.342c0.979-4.02,1.534-8.213,1.534-12.627c0-0.012,0.007-0.029,0.007-0.047
	C104.747,53.358,104.74,53.334,104.74,53.321z M8.004,36.53l4.456,2.432l4.458,2.436l1.392,0.76
	c0.388-0.838,1.158-1.422,2.088-1.613l0.985-21.716l0.3-6.561c-0.095,0.076-0.196,0.147-0.3,0.229
	c-1.523,1.207-3.025,2.505-4.465,3.922c-0.15,0.145-0.308,0.27-0.458,0.412c-1.447,1.452-2.763,2.953-4,4.488
	c-1.684,2.086-3.159,4.256-4.456,6.501c-1.216,2.091-2.275,4.244-3.153,6.477c-0.06,0.14-0.103,0.287-0.155,0.435l0.155,0.079
	L8.004,36.53z M12.46,59.608l4.458-8.953l2.432-4.883c-0.776-0.533-1.314-1.383-1.314-2.396c0-0.037,0.018-0.068,0.02-0.109
	l-1.137-0.617l-4.458-2.43l-4.456-2.438l-3.153-1.721l-0.526-0.285c-0.264,0.74-0.559,1.469-0.789,2.229
	c-1.453,4.805-2.186,9.91-2.192,15.316c0,0.014,0,0.029,0,0.047s0,0.035,0,0.047c0.007,5.385,0.739,10.473,2.192,15.27
	c0.378,1.262,0.833,2.492,1.315,3.711c0.181,0.457,0.363,0.918,0.558,1.371l2.596-5.205L12.46,59.608z M25.843,88.508l4.468-1.563
	l4.242-1.49l-4.242-12.625l-4.468-13.289l-4.46-13.258l-0.008-0.031c-0.13,0.018-0.252,0.08-0.389,0.08
	c-0.221,0-0.416-0.08-0.623-0.131l-3.445,6.922l-4.458,8.953l-4.456,8.951L6.009,75.03c0.609,1.303,1.267,2.59,1.995,3.848
	c1.297,2.244,2.772,4.424,4.456,6.516c1.237,1.541,2.553,3.051,4,4.51c0.15,0.148,0.308,0.268,0.458,0.416
	c0.346,0.334,0.707,0.633,1.056,0.959l3.409-1.201L25.843,88.508z M23.943,43.375c0,0.09-0.042,0.162-0.046,0.244l1.946,0.025
	l4.468,0.059l4.455,0.057l4.462,0.057l4.463,0.057l4.458,0.057l2.093,0.021l-2.093-4.361l-4.458-9.288l-4.463-9.31l-4.462-9.29
	l-2.741-5.716c-0.577,0.254-1.15,0.537-1.714,0.818c-1.521,0.755-3.011,1.594-4.468,2.52c-1.028,0.652-2.037,1.352-3.032,2.091
	l-1.359,29.102C22.851,40.747,23.943,41.913,23.943,43.375z M39.228,18.448l4.463,9.312l4.458,9.292l3.326,6.922l1.134,0.014
	l4.467,0.059l4.463,0.055l4.458,0.057l4.462,0.057l4.468,0.057l4.457,0.061l4.461,0.053l4.465,0.057l4.46,0.061l4.458,0.053
	l4.465,0.057l2.323,0.029c-0.495-3.117-1.277-6.115-2.323-9.003c-1.158-3.191-2.643-6.238-4.465-9.15
	c-0.523-0.833-1.053-1.666-1.626-2.477l-2.832,0.094l-4.46,0.149L83.844,24.4l-4.461,0.152l-1.109,0.037
	c-0.226,1.405-1.393,2.502-2.86,2.502c-0.177,0-0.322-0.071-0.487-0.102c-1.389-0.241-2.464-1.395-2.464-2.853
	c0-0.406,0.079-0.792,0.227-1.148l-2.23-1.469l-4.462-2.949l-4.458-2.954l-4.463-2.948L52.609,9.72l-4.46-2.952l-4.458-2.946
	l-1.641-1.09c-0.96,0.199-1.89,0.44-2.822,0.693c-1.519,0.407-2.999,0.89-4.462,1.438c-0.58,0.216-1.177,0.406-1.748,0.647
	l1.748,3.647L39.228,18.448z M34.903,86.497l-0.137,0.049l-4.455,1.566l-4.468,1.57l-4.46,1.563l-2.486,0.873
	c0.82,0.725,1.648,1.434,2.486,2.096c1.452,1.146,2.936,2.188,4.46,3.148c1.457,0.918,2.946,1.752,4.468,2.506
	c1.458,0.715,2.943,1.363,4.455,1.928c1.463,0.547,2.943,1.025,4.462,1.428c0.468,0.127,0.944,0.236,1.415,0.352l-1.415-4.223
	L34.903,86.497z M48.149,5.45l4.46,2.946l4.467,2.953l4.463,2.948l4.458,2.957l4.462,2.944l2.842,1.877
	c0.425-0.437,0.997-0.69,1.626-0.798c0.165-0.028,0.311-0.097,0.487-0.097c0.062,0,0.112,0.028,0.173,0.033l3.221-12.73
	c-1.27-0.754-2.564-1.433-3.881-2.063c-1.457-0.689-2.951-1.305-4.468-1.846C69,4.058,67.515,3.606,65.997,3.226
	c-1.459-0.361-2.946-0.674-4.458-0.905c-1.468-0.233-2.949-0.411-4.463-0.516c-1.328-0.097-2.666-0.188-4.033-0.188
	c-0.015,0-0.032,0-0.05,0c-0.011,0-0.028,0-0.047,0c-0.114,0-0.221,0.019-0.337,0.019c-1.507,0.01-2.998,0.078-4.46,0.203
	c-1.512,0.131-2.99,0.34-4.458,0.591c-0.026,0.01-0.058,0.01-0.083,0.016l0.083,0.056L48.149,5.45z M63.995,72.61l-2.456-5.127
	l-4.463-9.289l-4.467-9.313l-1.834-3.82l-2.626-0.031l-4.458-0.057l-4.463-0.059l-4.462-0.055l-4.455-0.057l-4.468-0.059
	l-2.261-0.025c-0.267,0.508-0.668,0.906-1.161,1.193l3.422,10.182l4.468,13.287l4.455,13.258l0.822,2.449l3.64-1.273l4.463-1.566
	l4.458-1.57l4.46-1.563l4.467-1.57l4.463-1.563l0.838-0.295c-0.028-0.148-0.091-0.271-0.091-0.426
	C62.286,74.083,62.992,73.081,63.995,72.61z M70.458,86.084l-3.929-8.189c-0.171,0.082-0.346,0.121-0.533,0.172
	c-0.244,0.063-0.486,0.152-0.754,0.152c-1.086,0-2-0.621-2.514-1.496l-1.19,0.42l-4.463,1.57l-4.467,1.564l-4.46,1.564l-4.458,1.566
	l-4.463,1.57l-3.282,1.156l3.282,9.768l2.681,7.973c0.589,0.127,1.188,0.236,1.782,0.338c1.468,0.25,2.946,0.461,4.458,0.588
	c1.462,0.127,2.953,0.189,4.46,0.201c0.116,0,0.223,0.016,0.337,0.016h0.098c1.366,0,2.704-0.09,4.032-0.186
	c1.514-0.104,2.995-0.281,4.463-0.508c1.512-0.234,2.999-0.541,4.458-0.902c1.519-0.377,3.004-0.828,4.462-1.338
	c1.517-0.537,3.011-1.15,4.468-1.838c0.631-0.299,1.275-0.574,1.895-0.904l-1.895-3.949L70.458,86.084z M78.239,23.487l1.145-0.033
	l4.461-0.151l4.465-0.152l4.46-0.149l2.014-0.066c-0.655-0.869-1.298-1.742-2.014-2.58c-1.021-1.195-2.091-2.379-3.241-3.525
	c-0.396-0.396-0.817-0.736-1.219-1.115c-1.445-1.377-2.937-2.646-4.465-3.818c-1.323-1.011-2.673-1.949-4.051-2.811
	c-0.136,0.532-0.272,1.071-0.41,1.604c-1.031,4.084-2.066,8.174-2.729,10.784C77.468,21.85,78.035,22.595,78.239,23.487z
	 M97.227,68.532l-4.458,1.018l-4.46,1.016l-4.465,1.021l-4.461,1.016l-4.457,1.018l-4.468,1.02l-2.28,0.521
	c0,0.033,0.022,0.068,0.022,0.102c0,0.76-0.306,1.434-0.772,1.953l3.03,6.324l4.468,9.311l2.863,5.971
	c0.538-0.303,1.063-0.648,1.594-0.973c1.525-0.92,3.011-1.934,4.461-3.037c1.528-1.168,3.02-2.43,4.465-3.793
	c0.401-0.383,0.822-0.719,1.219-1.115c1.15-1.152,2.221-2.34,3.241-3.541c1.671-1.973,3.132-4.035,4.458-6.15
	c1.822-2.916,3.307-5.973,4.465-9.158c0.454-1.254,0.873-2.521,1.222-3.82l-1.222,0.285L97.227,68.532z"/>
</svg>
