<?xml version="1.0" encoding="utf-8"?>
<!-- Generator: Adobe Illustrator 16.0.0, SVG Export Plug-In . SVG Version: 6.00 Build 0)  -->
<!DOCTYPE svg PUBLIC "-//W3C//DTD SVG 1.1//EN" "http://www.w3.org/Graphics/SVG/1.1/DTD/svg11.dtd">
<svg version="1.1" id="Capa_1" xmlns="http://www.w3.org/2000/svg" xmlns:xlink="http://www.w3.org/1999/xlink" x="0px" y="0px"
	 width="220px" height="38.167px" viewBox="0 0 220 38.167" enable-background="new 0 0 220 38.167" xml:space="preserve">
<g>
	<linearGradient id="SVGID_1_" gradientUnits="userSpaceOnUse" x1="43.2627" y1="18.8442" x2="218.915" y2="18.8442">
		<stop  offset="0" style="stop-color:#654293"/>
		<stop  offset="0.2035" style="stop-color:#3170AA"/>
		<stop  offset="1" style="stop-color:#0FB2AE"/>
	</linearGradient>
	<path fill="url(#SVGID_1_)" d="M61.437,7.169v24.441h-1.125v-4.206c-0.795,1.43-1.891,2.565-3.288,3.405
		c-1.43,0.875-2.992,1.311-4.684,1.311c-2.498,0-4.638-0.885-6.421-2.656c-1.771-1.783-2.658-3.924-2.658-6.422
		c0-2.508,0.886-4.649,2.658-6.42c1.783-1.783,3.923-2.675,6.421-2.675c1.691,0,3.254,0.438,4.684,1.313
		c1.396,0.84,2.493,1.975,3.288,3.404V7.169H61.437z M52.341,30.999c2.203,0,4.081-0.778,5.638-2.334
		c1.556-1.556,2.333-3.429,2.333-5.622c0-2.202-0.778-4.08-2.333-5.637c-1.557-1.556-3.435-2.334-5.638-2.334
		c-2.192,0-4.066,0.778-5.622,2.334c-1.555,1.557-2.333,3.435-2.333,5.637c0,2.193,0.778,4.066,2.333,5.622
		C48.275,30.22,50.149,30.999,52.341,30.999z M66.122,18.666c0.784-1.43,1.874-2.564,3.271-3.404
		c1.441-0.875,3.002-1.313,4.683-1.313v1.124c-2.191,0-4.064,0.778-5.621,2.334c-1.556,1.557-2.333,3.429-2.333,5.621v8.584h-1.123
		V14.476h1.123V18.666z M76.116,29.464c-1.771-1.783-2.656-3.924-2.656-6.422c0-2.508,0.885-4.649,2.656-6.42
		c1.784-1.783,3.923-2.675,6.421-2.675c2.51,0,4.651,0.892,6.422,2.675c1.783,1.771,2.674,3.912,2.674,6.42
		c0,2.498-0.892,4.639-2.674,6.422c-1.771,1.771-3.912,2.656-6.422,2.656C80.04,32.121,77.9,31.236,76.116,29.464z M76.916,17.406
		c-1.554,1.557-2.331,3.435-2.331,5.637c0,2.193,0.777,4.066,2.331,5.622c1.556,1.556,3.431,2.334,5.621,2.334
		c2.204,0,4.083-0.778,5.638-2.334c1.557-1.556,2.334-3.429,2.334-5.622c0-2.202-0.777-4.08-2.334-5.637
		c-1.555-1.556-3.434-2.334-5.638-2.334C80.347,15.072,78.472,15.85,76.916,17.406z M114.286,13.948c1.951,0,3.616,0.694,4.99,2.079
		c1.388,1.385,2.078,3.049,2.078,4.99v10.594h-1.124V21.017c0-1.635-0.579-3.039-1.736-4.209c-1.17-1.156-2.573-1.736-4.208-1.736
		c-1.647,0-3.05,0.58-4.206,1.736c-1.16,1.17-1.738,2.574-1.738,4.209v10.594h-1.124V21.017c0-1.635-0.585-3.039-1.754-4.209
		c-1.159-1.156-2.562-1.736-4.207-1.736c-1.635,0-3.038,0.58-4.208,1.736c-1.158,1.17-1.738,2.574-1.738,4.209v10.594h-1.123V14.476
		h1.123v2.727c1.398-2.17,3.379-3.255,5.946-3.255c1.442,0,2.759,0.403,3.952,1.21c1.157,0.783,2.014,1.817,2.572,3.101
		c0.544-1.283,1.396-2.317,2.553-3.101C111.527,14.351,112.843,13.948,114.286,13.948z M141.894,23.606h-17.029
		c0.147,2.065,0.981,3.814,2.503,5.246c1.531,1.431,3.345,2.146,5.434,2.146c2.201,0,4.082-0.778,5.637-2.334l0.785,0.8
		c-1.773,1.771-3.913,2.656-6.422,2.656c-2.499,0-4.637-0.885-6.422-2.656c-1.771-1.783-2.656-3.924-2.656-6.422
		c0-2.508,0.886-4.649,2.656-6.42c1.785-1.783,3.923-2.675,6.422-2.675c2.509,0,4.648,0.892,6.422,2.675
		c1.779,1.771,2.671,3.912,2.671,6.42V23.606z M140.738,22.482c-0.138-2.078-0.973-3.828-2.504-5.246
		c-1.523-1.441-3.335-2.164-5.434-2.164c-2.089,0-3.902,0.723-5.434,2.164c-1.521,1.418-2.355,3.168-2.503,5.246H140.738z
		 M162.085,7.169v24.441h-1.127v-4.206c-0.794,1.43-1.89,2.565-3.287,3.405c-1.431,0.875-2.993,1.311-4.685,1.311
		c-2.495,0-4.637-0.885-6.419-2.656c-1.772-1.783-2.657-3.924-2.657-6.422c0-2.508,0.885-4.649,2.657-6.42
		c1.782-1.783,3.924-2.675,6.419-2.675c1.691,0,3.254,0.438,4.685,1.313c1.397,0.84,2.493,1.975,3.287,3.404V7.169H162.085z
		 M152.986,30.999c2.205,0,4.084-0.778,5.64-2.334s2.332-3.429,2.332-5.622c0-2.202-0.776-4.08-2.332-5.637
		c-1.556-1.556-3.435-2.334-5.64-2.334c-2.189,0-4.063,0.778-5.619,2.334c-1.556,1.557-2.334,3.435-2.334,5.637
		c0,2.193,0.778,4.066,2.334,5.622S150.797,30.999,152.986,30.999z M183.046,14.476v17.118h-1.125v-4.189
		c-0.794,1.43-1.89,2.565-3.287,3.405c-1.433,0.875-2.991,1.311-4.685,1.311c-2.497,0-4.639-0.885-6.421-2.656
		c-1.771-1.783-2.657-3.924-2.657-6.422c0-2.508,0.887-4.649,2.657-6.42c1.782-1.783,3.924-2.675,6.421-2.675
		c1.693,0,3.252,0.438,4.685,1.313c1.397,0.84,2.493,1.975,3.287,3.404v-4.189H183.046z M173.949,30.999
		c2.202,0,4.083-0.778,5.639-2.334c1.555-1.556,2.333-3.429,2.333-5.622c0-2.202-0.778-4.08-2.333-5.637
		c-1.556-1.556-3.437-2.334-5.639-2.334c-2.191,0-4.065,0.778-5.621,2.334c-1.556,1.557-2.333,3.435-2.333,5.637
		c0,2.193,0.777,4.066,2.333,5.622S171.758,30.999,173.949,30.999z M186.57,18.666c0.784-1.43,1.876-2.564,3.271-3.404
		c1.441-0.875,3.004-1.313,4.683-1.313v1.124c-2.191,0-4.065,0.778-5.621,2.334c-1.556,1.557-2.333,3.429-2.333,5.621v8.584h-1.123
		V14.476h1.123V18.666z M196.568,5.568h1.123v3.186h-1.123V5.568z M196.568,14.494h1.123v17.117h-1.123V14.494z M203.399,29.464
		c-1.772-1.783-2.657-3.924-2.657-6.422c0-2.508,0.885-4.649,2.657-6.42c1.782-1.783,3.924-2.675,6.421-2.675
		c2.511,0,4.65,0.892,6.42,2.675c1.783,1.771,2.675,3.912,2.675,6.42c0,2.498-0.892,4.639-2.675,6.422
		c-1.77,1.771-3.909,2.656-6.42,2.656C207.323,32.121,205.182,31.236,203.399,29.464z M204.199,17.406
		c-1.556,1.557-2.334,3.435-2.334,5.637c0,2.193,0.778,4.066,2.334,5.622s3.43,2.334,5.621,2.334c2.203,0,4.082-0.778,5.638-2.334
		s2.334-3.429,2.334-5.622c0-2.202-0.778-4.08-2.334-5.637c-1.556-1.556-3.435-2.334-5.638-2.334
		C207.629,15.072,205.755,15.85,204.199,17.406z"/>
	<linearGradient id="SVGID_2_" gradientUnits="userSpaceOnUse" x1="1.4468" y1="18.8452" x2="37.0918" y2="18.8452">
		<stop  offset="0" style="stop-color:#654293"/>
		<stop  offset="1" style="stop-color:#0FB2AE"/>
	</linearGradient>
	<path fill="url(#SVGID_2_)" d="M37.09,18.846c0-0.897-0.079-1.764-0.196-2.613l-0.855-0.012L34.5,16.203l-1.537-0.02l-1.538-0.02
		l-1.539-0.019l-1.538-0.021l-1.536-0.02l-1.54-0.019l-1.538-0.021l-1.538-0.02l-1.538-0.02l-1.54-0.02l-0.208-0.002l0.208,0.435
		l1.54,3.209l1.538,3.202l1.223,2.551c0.018-0.002,0.036-0.01,0.055-0.01c0.092,0,0.175,0.029,0.26,0.053
		c0.3,0.081,0.549,0.278,0.672,0.559l0.866-0.198l1.54-0.351l1.536-0.35l1.538-0.352l1.539-0.352l1.538-0.35l1.537-0.352
		l1.539-0.352l0.522-0.118c0.338-1.386,0.529-2.831,0.529-4.353c0-0.004,0.001-0.01,0.001-0.016
		C37.092,18.859,37.09,18.851,37.09,18.846z M3.743,13.058l1.536,0.838l1.537,0.84l0.48,0.262c0.134-0.289,0.4-0.49,0.72-0.557
		l0.34-7.485l0.103-2.262C8.426,4.72,8.39,4.745,8.356,4.773C7.83,5.189,7.313,5.636,6.816,6.125
		C6.765,6.174,6.71,6.217,6.658,6.267c-0.499,0.5-0.952,1.018-1.378,1.547C4.699,8.533,4.19,9.281,3.743,10.055
		c-0.419,0.721-0.784,1.463-1.087,2.232c-0.02,0.048-0.034,0.099-0.053,0.149l0.053,0.027L3.743,13.058z M5.279,21.013l1.537-3.086
		l0.838-1.684c-0.268-0.184-0.453-0.477-0.453-0.826c0-0.013,0.006-0.023,0.007-0.037l-0.392-0.213L5.279,14.33l-1.536-0.84
		l-1.087-0.594l-0.181-0.098c-0.091,0.255-0.193,0.506-0.272,0.768c-0.501,1.656-0.754,3.416-0.756,5.28c0,0.005,0,0.01,0,0.017
		c0,0.006,0,0.012,0,0.016c0.002,1.856,0.255,3.61,0.756,5.264c0.13,0.435,0.288,0.859,0.453,1.279
		c0.063,0.157,0.126,0.316,0.193,0.473L3.743,24.1L5.279,21.013z M9.893,30.976l1.54-0.539l1.463-0.514l-1.463-4.352l-1.54-4.581
		l-1.537-4.57L8.353,16.41c-0.045,0.006-0.087,0.027-0.134,0.027c-0.077,0-0.144-0.027-0.215-0.045l-1.188,2.386l-1.537,3.086
		L3.743,24.95l-0.688,1.38c0.209,0.449,0.436,0.893,0.688,1.326c0.447,0.773,0.956,1.525,1.536,2.246
		c0.427,0.531,0.88,1.052,1.378,1.555c0.052,0.051,0.107,0.093,0.158,0.144c0.12,0.115,0.244,0.218,0.363,0.33l1.177-0.414
		L9.893,30.976z M9.237,15.417c0,0.031-0.014,0.057-0.016,0.085l0.671,0.009l1.54,0.02l1.537,0.02l1.538,0.02l1.538,0.02l1.538,0.02
		l0.721,0.008l-0.721-1.504l-1.538-3.201l-1.538-3.21L12.969,4.5l-0.945-1.971c-0.2,0.088-0.396,0.186-0.591,0.282
		c-0.525,0.261-1.039,0.55-1.54,0.869C9.538,3.905,9.19,4.146,8.848,4.401L8.379,14.432C8.862,14.511,9.237,14.914,9.237,15.417z
		 M14.507,6.825l1.538,3.21l1.538,3.203l1.146,2.386l0.391,0.005l1.54,0.021l1.538,0.019l1.538,0.02l1.538,0.02l1.54,0.02
		l1.536,0.021l1.538,0.019l1.539,0.02l1.538,0.021l1.537,0.019l1.539,0.02l0.801,0.01c-0.171-1.074-0.44-2.107-0.801-3.104
		c-0.399-1.1-0.911-2.15-1.539-3.154c-0.18-0.287-0.363-0.574-0.561-0.854l-0.976,0.032l-1.538,0.052l-1.539,0.051l-1.538,0.053
		l-0.382,0.013c-0.077,0.484-0.479,0.862-0.985,0.862c-0.061,0-0.111-0.024-0.168-0.035c-0.479-0.083-0.85-0.48-0.85-0.983
		c0-0.14,0.028-0.272,0.078-0.396l-0.768-0.506l-1.538-1.017l-1.538-1.019l-1.538-1.017l-1.54-1.017l-1.537-1.018l-1.538-1.016
		l-0.565-0.376c-0.331,0.069-0.652,0.152-0.973,0.239c-0.523,0.141-1.034,0.307-1.538,0.497c-0.201,0.074-0.407,0.139-0.603,0.222
		l0.603,1.258L14.507,6.825z M13.016,30.283l-0.047,0.017l-1.537,0.54l-1.54,0.541l-1.537,0.539L7.499,32.22
		c0.282,0.25,0.567,0.494,0.857,0.723c0.499,0.395,1.012,0.754,1.537,1.085c0.501,0.316,1.015,0.604,1.54,0.864
		c0.502,0.246,1.014,0.47,1.537,0.664c0.503,0.188,1.014,0.354,1.538,0.492c0.161,0.044,0.325,0.081,0.487,0.121l-0.487-1.456
		L13.016,30.283z M17.583,2.344l1.537,1.016l1.54,1.018l1.538,1.017l1.538,1.02l1.538,1.015l0.98,0.647
		c0.146-0.15,0.343-0.238,0.56-0.275c0.057-0.01,0.107-0.033,0.168-0.033c0.021,0,0.038,0.01,0.059,0.012l1.11-4.389
		c-0.437-0.26-0.883-0.494-1.337-0.711c-0.502-0.238-1.017-0.45-1.54-0.637c-0.502-0.179-1.015-0.333-1.538-0.464
		c-0.503-0.125-1.016-0.232-1.538-0.313c-0.506-0.079-1.017-0.141-1.538-0.178c-0.458-0.032-0.919-0.063-1.391-0.063
		c-0.005,0-0.01,0-0.017,0c-0.004,0-0.01,0-0.017,0c-0.039,0-0.076,0.006-0.116,0.006c-0.52,0.003-1.033,0.027-1.537,0.07
		c-0.521,0.045-1.032,0.117-1.538,0.204c-0.009,0.003-0.02,0.003-0.028,0.004l0.028,0.02L17.583,2.344z M23.044,25.496l-0.847-1.768
		l-1.538-3.202l-1.54-3.21l-0.632-1.317l-0.905-0.011l-1.538-0.02l-1.538-0.02l-1.538-0.02l-1.537-0.02l-1.54-0.02l-0.779-0.01
		c-0.091,0.176-0.23,0.313-0.401,0.412l1.18,3.51l1.54,4.58l1.537,4.57l0.283,0.844l1.254-0.438l1.538-0.54l1.538-0.541l1.537-0.539
		l1.54-0.541l1.538-0.539l0.289-0.102c-0.009-0.051-0.03-0.094-0.03-0.146C22.456,26.003,22.698,25.658,23.044,25.496z
		 M25.272,30.14l-1.355-2.823c-0.058,0.028-0.119,0.042-0.183,0.06c-0.084,0.021-0.168,0.053-0.26,0.053
		c-0.375,0-0.69-0.214-0.868-0.516l-0.41,0.145l-1.538,0.541l-1.54,0.54l-1.537,0.539l-1.538,0.54l-1.538,0.541l-1.132,0.398
		l1.132,3.367l0.924,2.748c0.203,0.044,0.409,0.082,0.614,0.116c0.506,0.087,1.016,0.159,1.538,0.203
		c0.504,0.044,1.017,0.065,1.537,0.069c0.04,0,0.077,0.006,0.116,0.006h0.034c0.471,0,0.932-0.031,1.39-0.064
		c0.521-0.035,1.032-0.097,1.538-0.175c0.521-0.081,1.034-0.187,1.538-0.312c0.522-0.13,1.035-0.285,1.538-0.461
		c0.523-0.186,1.038-0.396,1.54-0.634c0.218-0.103,0.439-0.197,0.653-0.312l-0.653-1.361L25.272,30.14z M27.954,8.562l0.395-0.012
		l1.538-0.052l1.539-0.053l1.538-0.052l0.694-0.022c-0.226-0.3-0.447-0.601-0.694-0.89c-0.352-0.412-0.721-0.82-1.117-1.215
		c-0.137-0.137-0.282-0.254-0.421-0.385c-0.498-0.475-1.012-0.912-1.539-1.316c-0.456-0.349-0.922-0.672-1.396-0.969
		c-0.046,0.184-0.094,0.369-0.141,0.553c-0.355,1.408-0.712,2.818-0.94,3.718C27.688,7.998,27.884,8.254,27.954,8.562z M34.5,24.089
		l-1.537,0.351l-1.538,0.351l-1.539,0.352l-1.538,0.351l-1.536,0.351l-1.54,0.352l-0.786,0.18c0,0.012,0.007,0.023,0.007,0.035
		c0,0.262-0.105,0.494-0.266,0.673l1.045,2.181l1.54,3.209l0.987,2.059c0.186-0.104,0.367-0.224,0.549-0.335
		c0.526-0.317,1.038-0.667,1.538-1.048c0.527-0.402,1.042-0.837,1.539-1.307c0.139-0.132,0.284-0.248,0.421-0.385
		c0.396-0.397,0.765-0.807,1.117-1.221c0.576-0.68,1.08-1.391,1.537-2.12c0.628-1.005,1.14-2.059,1.539-3.157
		c0.157-0.432,0.301-0.869,0.421-1.316l-0.421,0.098L34.5,24.089z"/>
</g>
</svg>
