<?xml version="1.0" encoding="utf-8"?>
<!-- Generator: Adobe Illustrator 16.0.0, SVG Export Plug-In . SVG Version: 6.00 Build 0)  -->
<!DOCTYPE svg PUBLIC "-//W3C//DTD SVG 1.1//EN" "http://www.w3.org/Graphics/SVG/1.1/DTD/svg11.dtd">
<svg version="1.1" id="Capa_1" xmlns="http://www.w3.org/2000/svg" xmlns:xlink="http://www.w3.org/1999/xlink" x="0px" y="0px"
	 width="84.738px" height="58.576px" viewBox="0 0 84.738 58.576" enable-background="new 0 0 84.738 58.576" xml:space="preserve">
<g>
	<path fill="#6E6D6E" d="M25.832,53.681c0,2.321-1.879,4.202-4.199,4.202c-2.321,0-4.202-1.881-4.202-4.202
		c0-2.318,1.881-4.201,4.202-4.201C23.953,49.479,25.832,51.362,25.832,53.681z"/>
</g>
<g>
	<circle fill="#6E6D6E" cx="58.11" cy="44.958" r="4.202"/>
</g>
<g>
	<path fill="#6E6D6E" d="M26.393,6.084v15.75c0.03-0.003,0.063,0.001,0.095,0.002c0.362-0.047,0.713-0.03,1.083-0.021
		c0.481,0.012,0.963,0.005,1.444,0.004V8.708h48.979v26.238h-5.891l-10.142,6.492l2.535-6.492H43.006
		c0,0.288-0.015,0.575-0.027,0.862c0.037,0.585,0.022,1.174,0.029,1.763h17.648l-4.07,10.426l16.288-10.426h7.744V6.084H26.393z"/>
</g>
<g>
	<circle fill="#6E6D6E" cx="79.248" cy="6.758" r="4.201"/>
</g>
<g>
	<path fill="#6E6D6E" d="M9.18,15.615c0,2.322-1.882,4.205-4.201,4.205c-2.32,0-4.201-1.883-4.201-4.205
		c0-2.317,1.881-4.199,4.201-4.199C7.299,11.416,9.18,13.298,9.18,15.615z"/>
</g>
<g>
	<circle fill="#6E6D6E" cx="27.728" cy="6.758" r="4.202"/>
</g>
<path fill="#6E6D6E" d="M16.771,43.692h28.863V19.204H6.277V45.75l14.557,7.667l1.224-2.323L8.9,44.167V21.828h17.675
	c0.331-0.032,0.656-0.021,0.997-0.013c0.515,0.013,1.031,0.004,1.547,0.004c0.017,0,0.028,0.007,0.043,0.009H43.01v19.241H16.771
	V43.692z"/>
</svg>
