<?xml version="1.0" encoding="utf-8"?>
<!-- Generator: Adobe Illustrator 16.0.0, SVG Export Plug-In . SVG Version: 6.00 Build 0)  -->
<!DOCTYPE svg PUBLIC "-//W3C//DTD SVG 1.1//EN" "http://www.w3.org/Graphics/SVG/1.1/DTD/svg11.dtd">
<svg version="1.1" id="Capa_1" xmlns="http://www.w3.org/2000/svg" xmlns:xlink="http://www.w3.org/1999/xlink" x="0px" y="0px"
	 width="125.667px" height="125.833px" viewBox="0 0 125.667 125.833" enable-background="new 0 0 125.667 125.833"
	 xml:space="preserve">
<g>
	<g>
		<path fill="#604C9A" d="M111.973,31.499c5.945,9.108,9.41,19.976,9.41,31.64c0,32.014-26.049,58.061-58.064,58.061
			c-32.014,0-58.061-26.047-58.061-58.061c0-32.018,26.047-58.064,58.061-58.064c6.359,0,12.48,1.03,18.213,2.929
			c0.838-1.017,1.676-2.033,2.514-3.05c-6.482-2.316-13.459-3.583-20.727-3.583c-34.057,0-61.765,27.709-61.765,61.768
			c0,34.057,27.708,61.764,61.765,61.764c34.059,0,61.766-27.707,61.766-61.764c0-12.344-3.643-23.852-9.906-33.509
			C114.112,30.252,113.043,30.876,111.973,31.499z"/>
	</g>
</g>
<g>
	<path fill="none" stroke="#614C9A" stroke-width="4" stroke-miterlimit="10" d="M60.667,58.667c0-3.866-3.134-7-7-7h-6
		c-3.866,0-7,3.134-7,7v17c0,3.866,3.134,7,7,7h6c3.866,0,7-3.134,7-7V58.667z"/>
</g>
<g>
	<path fill="none" stroke="#614C9A" stroke-width="4" stroke-miterlimit="10" d="M61.667,55.667c0,0,1.822,0,4.572,0
		s5.428-2.77,5.428-6.619v-6c0-3.85,2.036-7,4.786-7s4.894,3.15,4.894,7l-0.054-0.19c0,3.85,3.097,6.81,6.946,6.81h2
		c3.85,0,7.428,3.531,7.428,7.381v17c0,3.85-3.578,6.619-7.428,6.619h-8c-3.85,0-7-0.675-7-1.5s-3.15-1.5-7-1.5h-6.572"/>
</g>
</svg>
