<?xml version="1.0" encoding="utf-8"?>
<!-- Generator: Adobe Illustrator 16.0.0, SVG Export Plug-In . SVG Version: 6.00 Build 0)  -->
<!DOCTYPE svg PUBLIC "-//W3C//DTD SVG 1.1//EN" "http://www.w3.org/Graphics/SVG/1.1/DTD/svg11.dtd">
<svg version="1.1" id="Capa_1" xmlns="http://www.w3.org/2000/svg" xmlns:xlink="http://www.w3.org/1999/xlink" x="0px" y="0px"
	 width="66.715px" height="64.825px" viewBox="0 0 66.715 64.825" enable-background="new 0 0 66.715 64.825" xml:space="preserve">
<g>
	<ellipse fill="#6E6D6E" cx="11.846" cy="20.829" rx="4.386" ry="4.23"/>
</g>
<g>
	<ellipse fill="#6E6D6E" cx="34.005" cy="28.177" rx="4.385" ry="4.232"/>
</g>
<g>
	<ellipse fill="#6E6D6E" cx="55.47" cy="8.803" rx="4.386" ry="4.231"/>
</g>
<g>
	<polygon fill="#6E6D6E" points="34.275,29.403 11.485,21.845 12.208,19.811 33.733,26.951 54.71,8.019 56.229,9.588 	"/>
</g>
<g>
	<ellipse fill="#6E6D6E" cx="55.47" cy="8.803" rx="4.386" ry="4.231"/>
</g>
<g>
	<polygon fill="#6E6D6E" points="60.534,56.286 49.398,56.286 49.398,20.472 59.793,20.472 59.793,22.62 51.625,22.62 
		51.625,54.137 58.307,54.137 58.307,29.067 60.534,29.067 	"/>
</g>
<g>
	<polygon fill="#6E6D6E" points="39.746,56.286 28.611,56.286 28.611,37.663 39.006,37.663 39.006,39.811 30.838,39.811 
		30.838,54.137 37.52,54.137 37.52,41.961 39.746,41.961 	"/>
</g>
<g>
	<polygon fill="#6E6D6E" points="17.475,56.286 5.596,56.286 5.596,31.216 15.99,31.216 15.99,33.364 7.823,33.364 7.823,54.137 
		15.248,54.137 15.248,38.377 17.475,38.377 	"/>
</g>
</svg>
