<?xml version="1.0" encoding="utf-8"?>
<!-- Generator: Adobe Illustrator 16.0.0, SVG Export Plug-In . SVG Version: 6.00 Build 0)  -->
<!DOCTYPE svg PUBLIC "-//W3C//DTD SVG 1.1//EN" "http://www.w3.org/Graphics/SVG/1.1/DTD/svg11.dtd">
<svg version="1.1" id="Capa_1" xmlns="http://www.w3.org/2000/svg" xmlns:xlink="http://www.w3.org/1999/xlink" x="0px" y="0px"
	 width="199.667px" height="199px" viewBox="0 0 199.667 199" enable-background="new 0 0 199.667 199" xml:space="preserve">
<g>
	<path fill="#5B4791" d="M176.731,49.497c9.393,14.395,14.867,31.568,14.867,50.002c0,50.598-41.166,91.764-91.764,91.764
		c-50.599,0-91.765-41.166-91.765-91.764c0-50.598,41.166-91.763,91.765-91.763c10.049,0,19.725,1.629,28.784,4.628
		c1.324-1.606,2.648-3.213,3.971-4.821c-10.242-3.66-21.27-5.66-32.754-5.66C46.007,1.883,2.217,45.674,2.217,99.5
		c0,53.826,43.79,97.617,97.617,97.617S197.45,153.326,197.45,99.5c0-19.507-5.756-37.693-15.654-52.957
		C180.106,47.527,178.418,48.513,176.731,49.497z"/>
</g>
<text transform="matrix(1 0 0 1 18.7715 119.8325)" fill="#5B4791" font-family="'Khand-Regular'" font-size="56.7867">ICONO</text>
</svg>
