<?xml version="1.0" encoding="utf-8"?>
<!-- Generator: Adobe Illustrator 16.0.0, SVG Export Plug-In . SVG Version: 6.00 Build 0)  -->
<!DOCTYPE svg PUBLIC "-//W3C//DTD SVG 1.1//EN" "http://www.w3.org/Graphics/SVG/1.1/DTD/svg11.dtd">
<svg version="1.1" id="Capa_1" xmlns="http://www.w3.org/2000/svg" xmlns:xlink="http://www.w3.org/1999/xlink" x="0px" y="0px"
	 width="29.5px" height="30px" viewBox="0 0 29.5 30" enable-background="new 0 0 29.5 30" xml:space="preserve">
<g>
	<circle id="XMLID_2_" fill="#162742" cx="14.75" cy="15" r="13.666"/>
	<g>
		<polygon id="XMLID_106_" fill="#FFFFFF" points="7.004,14.472 7.004,22.399 10.781,22.399 10.781,13.835 10.781,11.608 
			7.004,11.608 		"/>
		<circle id="XMLID_1_" fill="#FFFFFF" cx="8.894" cy="8.101" r="1.889"/>
		<path id="XMLID_104_" fill="#FFFFFF" d="M23.11,14.922c-0.255-2.034-1.189-3.313-3.939-3.313c-1.631,0-2.727,0.605-3.174,1.456
			H15.95v-1.456h-3.009v2.07v8.721h3.146v-5.348c0-1.411,0.266-2.777,2.011-2.777c1.719,0,1.856,1.613,1.856,2.867v5.258h3.239
			v-5.93l0,0C23.193,15.916,23.17,15.397,23.11,14.922z"/>
	</g>
</g>
</svg>
