<?xml version="1.0" encoding="utf-8"?>
<!-- Generator: Adobe Illustrator 16.0.0, SVG Export Plug-In . SVG Version: 6.00 Build 0)  -->
<!DOCTYPE svg PUBLIC "-//W3C//DTD SVG 1.1//EN" "http://www.w3.org/Graphics/SVG/1.1/DTD/svg11.dtd">
<svg version="1.1" id="Capa_1" xmlns="http://www.w3.org/2000/svg" xmlns:xlink="http://www.w3.org/1999/xlink" x="0px" y="0px"
	 width="125.667px" height="125.833px" viewBox="0 0 125.667 125.833" enable-background="new 0 0 125.667 125.833"
	 xml:space="preserve">
<g>
	<g>
		<path fill="#19B4B8" d="M111.51,31.499c5.944,9.108,9.407,19.976,9.407,31.64c0,32.014-26.046,58.061-58.062,58.061
			S4.794,95.153,4.794,63.139c0-32.018,26.046-58.064,58.062-58.064c6.358,0,12.48,1.03,18.211,2.929
			c0.838-1.017,1.678-2.033,2.514-3.05C77.1,2.638,70.124,1.371,62.856,1.371C28.798,1.371,1.09,29.08,1.09,63.139
			c0,34.057,27.708,61.764,61.766,61.764c34.057,0,61.766-27.707,61.766-61.764c0-12.344-3.644-23.852-9.906-33.509
			C113.647,30.252,112.579,30.876,111.51,31.499z"/>
	</g>
</g>
<path fill="none" stroke="#1AB4B7" stroke-width="4" stroke-miterlimit="10" d="M60.739,35.547c0,0-45,10.323,0,58.5
	C105.739,45.87,60.739,35.547,60.739,35.547z M61.114,64.797c-4.257,0-7.708-3.451-7.708-7.709c0-4.256,3.451-7.707,7.708-7.707
	s7.708,3.451,7.708,7.707C68.822,61.346,65.371,64.797,61.114,64.797z"/>
</svg>
