<?xml version="1.0" encoding="utf-8"?>
<!-- Generator: Adobe Illustrator 16.0.0, SVG Export Plug-In . SVG Version: 6.00 Build 0)  -->
<!DOCTYPE svg PUBLIC "-//W3C//DTD SVG 1.1//EN" "http://www.w3.org/Graphics/SVG/1.1/DTD/svg11.dtd">
<svg version="1.1" id="Capa_1" xmlns="http://www.w3.org/2000/svg" xmlns:xlink="http://www.w3.org/1999/xlink" x="0px" y="0px"
	 width="56.105px" height="58.576px" viewBox="0 0 56.105 58.576" enable-background="new 0 0 56.105 58.576" xml:space="preserve">
<g>
	<g>
		<path fill="#6E6D6E" d="M39.318,32.374c-7.438,0-13.742-5.574-14.662-12.965c-1.01-8.098,4.756-15.506,12.85-16.514
			c0.613-0.077,1.236-0.116,1.852-0.116c7.436,0,13.74,5.575,14.662,12.968c0.488,3.922-0.578,7.799-3.006,10.918
			s-5.926,5.106-9.846,5.594C40.554,32.334,39.931,32.374,39.318,32.374z M39.357,5.402c-0.508,0-1.02,0.031-1.527,0.096
			c-6.658,0.829-11.402,6.924-10.572,13.586c0.76,6.08,5.943,10.666,12.061,10.666c0.506,0,1.02-0.031,1.523-0.095
			c3.229-0.402,6.105-2.037,8.102-4.603s2.875-5.756,2.473-8.981C50.656,9.989,45.472,5.402,39.357,5.402z"/>
	</g>
	<g>
		
			<rect x="16.997" y="22.618" transform="matrix(0.7244 0.6894 -0.6894 0.7244 33.3793 -1.2949)" fill="#6E6D6E" width="2.623" height="36.96"/>
	</g>
	<g>
		
			<rect x="17.903" y="30.645" transform="matrix(0.6871 0.7266 -0.7266 0.6871 30.1889 -6.1855)" fill="#6E6D6E" width="8.747" height="2.624"/>
	</g>
	<g>
		
			<rect x="9.575" y="38.611" transform="matrix(0.6872 0.7265 -0.7265 0.6872 33.3662 2.3556)" fill="#6E6D6E" width="8.746" height="2.624"/>
	</g>
</g>
<g>
	<path fill="#6E6D6E" d="M10.47,52.252c0,2.32-1.879,4.203-4.199,4.203c-2.322,0-4.203-1.883-4.203-4.203
		c0-2.318,1.881-4.201,4.203-4.201C8.591,48.051,10.47,49.934,10.47,52.252z"/>
</g>
<g>
	<path fill="#6E6D6E" d="M46.361,13.914c0,2.321-1.879,4.204-4.199,4.204c-2.322,0-4.203-1.883-4.203-4.204
		c0-2.318,1.881-4.2,4.203-4.2C44.482,9.714,46.361,11.596,46.361,13.914z"/>
</g>
</svg>
