<?xml version="1.0" encoding="utf-8"?>
<!-- Generator: Adobe Illustrator 16.0.0, SVG Export Plug-In . SVG Version: 6.00 Build 0)  -->
<!DOCTYPE svg PUBLIC "-//W3C//DTD SVG 1.1//EN" "http://www.w3.org/Graphics/SVG/1.1/DTD/svg11.dtd">
<svg version="1.1" id="Capa_1" xmlns="http://www.w3.org/2000/svg" xmlns:xlink="http://www.w3.org/1999/xlink" x="0px" y="0px"
	 width="125.667px" height="125.833px" viewBox="0 0 125.667 125.833" enable-background="new 0 0 125.667 125.833"
	 xml:space="preserve">
<path fill="#19B4B8" d="M114.735,29.63c6.262,9.657,9.906,21.166,9.906,33.509c0,34.057-27.707,61.764-61.765,61.764
	c-34.059,0-61.767-27.707-61.767-61.764c0-34.059,27.708-61.768,61.767-61.768c7.267,0,14.243,1.267,20.726,3.583
	c-0.84,1.017-1.676,2.033-2.514,3.05c-5.733-1.898-11.854-2.929-18.212-2.929c-32.017,0-58.063,26.046-58.063,58.064
	c0,32.014,26.046,58.061,58.063,58.061c32.015,0,58.062-26.047,58.062-58.061c0-11.664-3.465-22.532-9.406-31.64
	C112.6,30.876,113.667,30.252,114.735,29.63z"/>
<g>
	<polyline fill="none" stroke="#1AB4B7" stroke-width="4" stroke-miterlimit="10" points="34.239,43.047 62.875,63.547 
		92.239,43.047 	"/>
	<path fill="none" stroke="#1AB4B7" stroke-width="4" stroke-miterlimit="10" d="M92.036,83.667H34.869v-41h57.167V83.667z"/>
</g>
</svg>
