<?xml version="1.0" encoding="utf-8"?>
<!-- Generator: Adobe Illustrator 16.0.0, SVG Export Plug-In . SVG Version: 6.00 Build 0)  -->
<!DOCTYPE svg PUBLIC "-//W3C//DTD SVG 1.1//EN" "http://www.w3.org/Graphics/SVG/1.1/DTD/svg11.dtd">
<svg version="1.1" id="Capa_1" xmlns="http://www.w3.org/2000/svg" xmlns:xlink="http://www.w3.org/1999/xlink" x="0px" y="0px"
	 width="59.883px" height="54.651px" viewBox="0 0 59.883 54.651" enable-background="new 0 0 59.883 54.651" xml:space="preserve">
<g>
	<circle fill="#6E6D6E" cx="4.994" cy="49.337" r="4.322"/>
</g>
<g>
	<polygon fill="#6E6D6E" points="47.28,48.77 44.821,47.857 52.989,25.868 46.134,26.308 45.967,23.69 56.856,22.992 	"/>
</g>
<g>
	<rect x="11.775" y="36.478" fill="#6E6D6E" width="27.112" height="2.624"/>
</g>
<g>
	<rect x="11.775" y="29.482" fill="#6E6D6E" width="27.112" height="2.623"/>
</g>
<g>
	<rect x="11.775" y="22.736" fill="#6E6D6E" width="27.112" height="2.624"/>
</g>
<g>
	<rect x="11.775" y="15.489" fill="#6E6D6E" width="27.112" height="2.624"/>
</g>
<g>
	<circle fill="#6E6D6E" cx="4.994" cy="4.981" r="4.322"/>
</g>
<g>
	<circle fill="#6E6D6E" cx="45.938" cy="4.981" r="4.322"/>
</g>
<g>
	<circle fill="#6E6D6E" cx="54.808" cy="24.09" r="4.321"/>
</g>
<g>
	<circle fill="#6E6D6E" cx="45.938" cy="49.337" r="4.322"/>
</g>
<g>
	<polygon fill="#6E6D6E" points="46.759,51.346 3.03,51.346 3.03,4.119 45.885,4.119 45.885,6.743 5.653,6.743 5.653,48.722 
		44.135,48.722 44.135,17.237 46.759,17.237 	"/>
</g>
</svg>
