<?xml version="1.0" encoding="utf-8"?>
<!-- Generator: Adobe Illustrator 16.0.0, SVG Export Plug-In . SVG Version: 6.00 Build 0)  -->
<!DOCTYPE svg PUBLIC "-//W3C//DTD SVG 1.1//EN" "http://www.w3.org/Graphics/SVG/1.1/DTD/svg11.dtd">
<svg version="1.1" id="Capa_1" xmlns="http://www.w3.org/2000/svg" xmlns:xlink="http://www.w3.org/1999/xlink" x="0px" y="0px"
	 width="125.667px" height="125.833px" viewBox="0 0 125.667 125.833" enable-background="new 0 0 125.667 125.833"
	 xml:space="preserve">
<g>
	<g>
		<path fill="#604C9A" d="M112.305,31.499c5.943,9.108,9.407,19.976,9.407,31.64c0,32.014-26.046,58.061-58.063,58.061
			c-32.015,0-58.062-26.047-58.062-58.061c0-32.018,26.047-58.064,58.062-58.064c6.358,0,12.481,1.03,18.212,2.929
			c0.839-1.017,1.677-2.033,2.514-3.05c-6.48-2.316-13.457-3.583-20.726-3.583c-34.057,0-61.765,27.709-61.765,61.768
			c0,34.057,27.708,61.764,61.765,61.764c34.058,0,61.765-27.707,61.765-61.764c0-12.344-3.642-23.852-9.904-33.509
			C114.442,30.252,113.374,30.876,112.305,31.499z"/>
	</g>
</g>
<path fill="none" stroke="#614C9A" stroke-width="4" stroke-miterlimit="10" d="M34.473,45.186
	c-1.614,3.956-1.017,10.118,1.328,13.69l21.664,33.018c2.345,3.572,7.754,6.311,12.021,6.086l14.671-0.775
	c4.268-0.227,5.633-3.186,3.035-6.578l-5.119-6.688c-2.598-3.393-6.297-5.059-8.221-3.703s-5.418-0.457-7.764-4.029L53.29,56.725
	c-2.346-3.57-2.069-7.982,0.614-9.803c2.685-1.819,2.759-6.086,0.165-9.484l-5.998-7.852c-2.594-3.397-6.037-2.938-7.651,1.019
	L34.473,45.186z"/>
</svg>
