<?xml version="1.0" encoding="utf-8"?>
<!-- Generator: Adobe Illustrator 16.0.0, SVG Export Plug-In . SVG Version: 6.00 Build 0)  -->
<!DOCTYPE svg PUBLIC "-//W3C//DTD SVG 1.1//EN" "http://www.w3.org/Graphics/SVG/1.1/DTD/svg11.dtd">
<svg version="1.1" id="Capa_1" xmlns="http://www.w3.org/2000/svg" xmlns:xlink="http://www.w3.org/1999/xlink" x="0px" y="0px"
	 width="29.5px" height="30px" viewBox="0 0 29.5 30" enable-background="new 0 0 29.5 30" xml:space="preserve">
<circle id="XMLID_76_" fill="#29ACE3" cx="14.75" cy="14.983" r="13.667"/>
<path fill="#FFFFFF" d="M22.459,16.349c0.116-0.525,0.178-1.072,0.178-1.633c0-0.193-0.011-0.385-0.024-0.574
	c-0.298-3.935-3.629-7.037-7.698-7.037c-0.449,0-0.891,0.038-1.319,0.11c-0.69-0.429-1.507-0.679-2.381-0.679
	c-2.475,0-4.479,1.979-4.479,4.416c0,0.815,0.225,1.578,0.614,2.234c-0.057,0.273-0.098,0.555-0.123,0.84
	c-0.021,0.229-0.032,0.457-0.032,0.689c0,4.207,3.457,7.613,7.721,7.613c0.482,0,0.956-0.043,1.413-0.127
	c0.631,0.334,1.354,0.523,2.117,0.523c2.475,0,4.479-1.977,4.479-4.416C22.924,17.606,22.757,16.94,22.459,16.349z M18.875,18.354
	c-0.356,0.498-0.884,0.893-1.569,1.174c-0.677,0.277-1.488,0.418-2.411,0.418c-1.109,0-2.04-0.193-2.765-0.572
	c-0.521-0.275-0.947-0.648-1.273-1.111c-0.326-0.467-0.493-0.93-0.493-1.377c0-0.277,0.109-0.521,0.323-0.719
	c0.21-0.195,0.481-0.295,0.806-0.295c0.266,0,0.493,0.078,0.68,0.232c0.178,0.148,0.331,0.369,0.453,0.654
	c0.138,0.309,0.286,0.568,0.443,0.773c0.152,0.199,0.369,0.365,0.646,0.494c0.281,0.131,0.657,0.197,1.122,0.197
	c0.638,0,1.162-0.135,1.555-0.4c0.386-0.258,0.572-0.568,0.572-0.949c0-0.301-0.097-0.537-0.298-0.723
	c-0.211-0.191-0.488-0.342-0.824-0.447c-0.351-0.107-0.827-0.225-1.417-0.348c-0.802-0.168-1.482-0.369-2.023-0.596
	c-0.554-0.232-1-0.553-1.326-0.957c-0.106-0.131-0.193-0.273-0.266-0.426c-0.154-0.322-0.235-0.689-0.235-1.099
	c0-0.575,0.177-1.095,0.525-1.54c0.344-0.444,0.85-0.79,1.498-1.025c0.643-0.233,1.404-0.353,2.268-0.353
	c0.689,0,1.295,0.079,1.801,0.234c0.509,0.156,0.938,0.367,1.275,0.627c0.34,0.261,0.593,0.541,0.75,0.832
	c0.161,0.293,0.243,0.585,0.243,0.867c0,0.272-0.107,0.52-0.316,0.736c-0.212,0.215-0.479,0.324-0.794,0.324
	c-0.287,0-0.51-0.068-0.664-0.201c-0.145-0.129-0.295-0.325-0.462-0.607c-0.192-0.359-0.427-0.645-0.692-0.845
	c-0.262-0.194-0.694-0.294-1.29-0.294c-0.552,0-1.004,0.109-1.337,0.326c-0.321,0.209-0.479,0.447-0.479,0.73
	c0,0.174,0.051,0.318,0.155,0.441c0.109,0.132,0.264,0.25,0.459,0.345c0.204,0.102,0.414,0.182,0.621,0.238
	c0.04,0.01,0.086,0.021,0.135,0.035c0.219,0.057,0.531,0.131,0.936,0.223c0.624,0.133,1.199,0.281,1.705,0.441
	c0.516,0.162,0.96,0.361,1.321,0.596c0.37,0.236,0.663,0.541,0.871,0.904c0.21,0.367,0.314,0.818,0.314,1.342
	C19.416,17.282,19.234,17.854,18.875,18.354z"/>
</svg>
