<?xml version="1.0" encoding="utf-8"?>
<!-- Generator: Adobe Illustrator 16.0.0, SVG Export Plug-In . SVG Version: 6.00 Build 0)  -->
<!DOCTYPE svg PUBLIC "-//W3C//DTD SVG 1.1//EN" "http://www.w3.org/Graphics/SVG/1.1/DTD/svg11.dtd">
<svg version="1.1" id="Capa_1" xmlns="http://www.w3.org/2000/svg" xmlns:xlink="http://www.w3.org/1999/xlink" x="0px" y="0px"
	 width="29.5px" height="30px" viewBox="0 0 29.5 30" enable-background="new 0 0 29.5 30" xml:space="preserve">
<g>
	<circle id="XMLID_49_" fill="#66C6E6" cx="14.866" cy="14.668" r="13.667"/>
	<path id="XMLID_47_" fill="#FFFFFF" d="M22.96,10.498c-0.595,0.26-1.234,0.436-1.906,0.515c0.685-0.405,1.211-1.046,1.46-1.81
		c-0.642,0.375-1.354,0.647-2.109,0.794c-0.605-0.636-1.469-1.032-2.424-1.032c-1.834,0-3.321,1.465-3.321,3.27
		c0,0.256,0.03,0.504,0.085,0.745c-2.76-0.137-5.207-1.438-6.846-3.417c-0.284,0.482-0.45,1.045-0.45,1.645
		c0,1.133,0.589,2.135,1.479,2.721c-0.544-0.018-1.058-0.164-1.505-0.408c0,0.013,0,0.027,0,0.04c0,0.419,0.082,0.817,0.228,1.185
		c0.406,1.025,1.319,1.801,2.438,2.023c-0.28,0.072-0.572,0.113-0.876,0.113c-0.214,0-0.421-0.02-0.625-0.059
		c0.424,1.299,1.65,2.244,3.103,2.27c-1.137,0.879-2.567,1.4-4.125,1.4c-0.269,0-0.532-0.016-0.793-0.045
		c1.472,0.928,3.219,1.469,5.092,1.469c5.192,0,8.383-3.598,9.226-7.329c0.148-0.659,0.225-1.323,0.225-1.974
		c0-0.141-0.002-0.283-0.008-0.423C21.952,11.73,22.516,11.154,22.96,10.498z"/>
</g>
</svg>
